<?xml version="1.0" encoding="utf-8"?>
<!-- Generator: Adobe Illustrator 22.1.0, SVG Export Plug-In . SVG Version: 6.00 Build 0)  -->
<svg version="1.1" xmlns="http://www.w3.org/2000/svg" xmlns:xlink="http://www.w3.org/1999/xlink" x="0px" y="0px"
	 viewBox="0 0 150 150" style="enable-background:new 0 0 150 150;" xml:space="preserve">
<style type="text/css">
	.st0{display:none;}
	.st1{display:inline;}
	.st2{fill:#FFFFFF;stroke:#FFFFFF;stroke-width:3;stroke-miterlimit:10;}
	.st3{fill:#FFFFFF;}
	.st4{fill:#FFFFFF;stroke:#1173BA;stroke-width:3;stroke-miterlimit:10;}
	.st5{fill:none;stroke:#1173BA;stroke-width:3;stroke-miterlimit:10;}
	.st6{fill:#1173BA;stroke:#FFFFFF;stroke-width:3;stroke-linejoin:bevel;}
	.st7{fill:#1173BA;}
	.st8{fill:#FFFFFF;stroke:#FFFFFF;stroke-width:3;stroke-linejoin:bevel;stroke-miterlimit:10;}
	.st9{fill:none;stroke:#FFFFFF;stroke-width:3;stroke-linejoin:bevel;stroke-miterlimit:10;}
</style>
<g id="Layer_1" class="st0">
	<g class="st1">
		<g>
			<path class="st2" d="M120.2,147.5V91.3c9.4-9.4,15.2-22.4,15.2-36.8c0-28.7-23.3-52.1-52.1-52.1S31.3,25.8,31.3,54.5
				c0,0.8,0,1.6,0.1,2.4l-7.3,12.6L14.6,86h12.1v20.6c0,7.8,6.3,14,14,14h22.2v26.9"/>
		</g>
		<g>
			<polygon class="st3" points="46.5,94.2 58.4,79.2 52.2,69.1 36.8,70.4 35.9,86.7 			"/>
			<path class="st3" d="M47.8,55c-3.9-1.5-7.9-2.5-12.2-3c1-13.3,7.1-25.1,16.2-33.8c2.9,1.1,5.6,2.4,8.2,3.9
				C52.5,31,47.9,42.5,47.8,55z"/>
		</g>
		<g>
			<path class="st4" d="M123.7,53.5c0,21.5-17.4,38.9-38.9,38.9C63.4,92.4,46,75,46,53.5c0-21.5,17.4-38.9,38.9-38.9
				C106.3,14.6,123.7,32.1,123.7,53.5z"/>
			<path class="st4" d="M114.5,53.5c0,16.4-13.3,29.7-29.7,29.7c-16.4,0-29.7-13.3-29.7-29.7c0-16.4,13.3-29.7,29.7-29.7
				C101.3,23.8,114.5,37.1,114.5,53.5z"/>
			<g>
				<path class="st5" d="M93.6,43.2v-2c0-3.5-2.8-6.3-6.3-6.3h-5.1c-3.5,0-6.3,2.8-6.3,6.3v4.3c0,2,1.5,3.7,3.6,4.9l9.7,3.7"/>
				<path class="st5" d="M75.8,61.8v2c0,3.5,2.8,6.3,6.3,6.3h5.1c3.5,0,6.3-2.8,6.3-6.3v-4.3c0-2-1.6-3.7-3.7-5l-9.2-3.5"/>
				<line class="st5" x1="85.1" y1="31" x2="85.1" y2="74.3"/>
			</g>
		</g>
	</g>
</g>
<g id="Layer_2">
	<g>
		<polygon class="st2" points="144.2,147.9 144.2,69.5 144.2,30.2 116,2 37.5,2 37.5,31.1 37.5,69.5 37.5,147.9 		"/>
		<g>
			<polygon class="st6" points="116,30.2 144.2,30.2 116,2 			"/>
		</g>
		<rect x="52" y="18.7" class="st5" width="42.9" height="10.1"/>
		<rect x="113.3" y="48.6" class="st7" width="15.8" height="11.2"/>
		<rect x="80.3" y="48.6" class="st7" width="33" height="11.2"/>
		<rect x="52" y="48.6" class="st7" width="29.3" height="11.2"/>
		<rect x="52" y="48.6" class="st5" width="77.1" height="58.9"/>
		<line class="st5" x1="51.6" y1="59.9" x2="129.3" y2="59.9"/>
		<line class="st5" x1="113" y1="48.4" x2="113" y2="108.2"/>
		<line class="st5" x1="81" y1="48.4" x2="81" y2="108.2"/>
		<line class="st5" x1="130.3" y1="121.9" x2="100.9" y2="121.9"/>
		<rect x="13.1" y="2.5" class="st2" width="11.3" height="128.2"/>
		<polygon class="st8" points="24.4,130.7 13.1,130.7 15.9,146.7 21.6,146.7 		"/>
		<line class="st9" x1="13.9" y1="83.4" x2="24.9" y2="83.4"/>
		<line class="st9" x1="13.9" y1="76.3" x2="24.9" y2="76.3"/>
		<polyline class="st9" points="26.3,9.2 5.8,9.2 5.8,56.9 		"/>
	</g>
</g>
</svg>
