<?xml version="1.0" encoding="utf-8"?>
<!-- Generator: Adobe Illustrator 22.1.0, SVG Export Plug-In . SVG Version: 6.00 Build 0)  -->
<svg version="1.1" xmlns="http://www.w3.org/2000/svg" xmlns:xlink="http://www.w3.org/1999/xlink" x="0px" y="0px"
	 viewBox="0 0 150 150" style="enable-background:new 0 0 150 150;" xml:space="preserve">
<style type="text/css">
	.st0{display:none;}
	.st1{display:inline;}
	.st2{fill:#FFFFFF;stroke:#FFFFFF;stroke-width:3;stroke-miterlimit:10;}
	.st3{fill:#FFFFFF;}
	.st4{fill:#1173BA;stroke:#1173BA;stroke-width:3;stroke-miterlimit:10;}
	.st5{fill:#FFFFFF;stroke:#1173BA;stroke-width:3;stroke-miterlimit:10;}
	.st6{fill:none;stroke:#1173BA;stroke-width:3;stroke-miterlimit:10;}
	.st7{fill:#BCE6F8;stroke:#1173BA;stroke-width:3;}
	.st8{fill:none;stroke:#FFFFFF;stroke-width:3;}
	.st9{fill:#FFFFFF;stroke:#FFFFFF;}
	.st10{fill:none;stroke:#FFFFFF;stroke-width:3;stroke-miterlimit:10;}
	.st11{fill:#1173BA;stroke:#FFFFFF;stroke-width:3;stroke-linejoin:bevel;}
	.st12{fill:#1173BA;}
	.st13{fill:#FFFFFF;stroke:#FFFFFF;stroke-width:3;stroke-linejoin:bevel;stroke-miterlimit:10;}
	.st14{fill:none;stroke:#FFFFFF;stroke-width:3;stroke-linejoin:bevel;stroke-miterlimit:10;}
</style>
<g id="Layer_1" class="st0">
	<g class="st1">
		<g>
			<path class="st2" d="M120.2,147.5V91.3c9.4-9.4,15.2-22.4,15.2-36.8c0-28.7-23.3-52.1-52.1-52.1S31.3,25.8,31.3,54.5
				c0,0.8,0,1.6,0.1,2.4l-7.3,12.6L14.6,86h12.1v20.6c0,7.8,6.3,14,14,14h22.2v26.9"/>
		</g>
		<g>
			<polygon class="st3" points="46.5,94.2 58.4,79.2 52.2,69.1 36.8,70.4 35.9,86.7 			"/>
			<path class="st3" d="M47.8,55c-3.9-1.5-7.9-2.5-12.2-3c1-13.3,7.1-25.1,16.2-33.8c2.9,1.1,5.6,2.4,8.2,3.9
				C52.5,31,47.9,42.5,47.8,55z"/>
		</g>
		<g>
			<path class="st4" d="M123.7,53.5c0,21.5-17.4,38.9-38.9,38.9C63.4,92.4,46,75,46,53.5c0-21.5,17.4-38.9,38.9-38.9
				C106.3,14.6,123.7,32.1,123.7,53.5z"/>
			<path class="st5" d="M114.5,53.5c0,16.4-13.3,29.7-29.7,29.7c-16.4,0-29.7-13.3-29.7-29.7c0-16.4,13.3-29.7,29.7-29.7
				C101.3,23.8,114.5,37.1,114.5,53.5z"/>
			<g>
				<path class="st6" d="M93.6,43.2v-2c0-3.5-2.8-6.3-6.3-6.3h-5.1c-3.5,0-6.3,2.8-6.3,6.3v4.3c0,2,1.5,3.7,3.6,4.9l9.7,3.7"/>
				<path class="st6" d="M75.8,61.8v2c0,3.5,2.8,6.3,6.3,6.3h5.1c3.5,0,6.3-2.8,6.3-6.3v-4.3c0-2-1.6-3.7-3.7-5l-9.2-3.5"/>
				<line class="st6" x1="85.1" y1="31" x2="85.1" y2="74.3"/>
			</g>
		</g>
	</g>
</g>
<g id="Layer_3">
	<g>
		<polyline class="st2" points="60.7,44 60.7,8.8 146.5,8.8 146.5,73.7 102,73.7 81.9,91 81.9,72.4 		"/>
		<g>
			<line class="st7" x1="129.9" y1="29.5" x2="77.3" y2="29.5"/>
			<line class="st7" x1="129.9" y1="42.3" x2="77.3" y2="42.3"/>
			<line class="st7" x1="129.9" y1="55" x2="77.3" y2="55"/>
		</g>
		<g>
			<g>
				<path class="st3" d="M3.5,141.2c2.2-12.4,1.6-15.3,3.8-28.5c0-2.4,3-5,6.7-5.7c25.8-4.9,46.6-4.9,72.4,0
					c3.7,0.7,6.7,3.3,6.7,5.7c2.2,13.3,1.5,16.1,3.8,28.5"/>
				<path class="st8" d="M3.5,141.2c2.2-12.4,1.6-15.3,3.8-28.5c0-2.4,3-5,6.7-5.7c25.8-4.9,46.6-4.9,72.4,0
					c3.7,0.7,6.7,3.3,6.7,5.7c2.2,13.3,1.5,16.1,3.8,28.5"/>
			</g>
			<path class="st3" d="M62.7,112.1c0.4-2.8,0.8-11.2,1.2-13.9c2.6-1.7,4.5-4.1,4.6-6.1c0.3-2.6,0.6-5.1,0.9-7.7
				c0.4,0.4,0.8,0.6,1.4,0.7c1.2,0.1,2.3-0.8,2.5-2l1.2-11.9c0.1-1.2-0.8-2.3-2-2.5c-0.5,0-0.9,0.1-1.3,0.3c0.3-2.3,0.5-4.5,0.8-6.8
				c0.2-3.1,1.7-11.4-4.2-16.7c-8.6-8.5-27.6-8.5-36.2,0c-6,5.3-4.4,13.6-4.2,16.7c0.3,2.3,0.5,4.5,0.8,6.8
				c-0.4-0.2-0.8-0.3-1.3-0.3c-1.2,0.1-2.1,1.2-2,2.5L26,83c0.1,1.2,1.2,2.1,2.5,2c0.6-0.1,1-0.3,1.4-0.7c0.3,2.6,0.6,5.1,0.9,7.7
				c0.2,2,2,4.5,4.6,6.1c0.4,2.8,0.8,11.2,1.2,13.9l12,10.6L62.7,112.1z"/>
			<path class="st9" d="M27.9,68.2h1.7V55.7c0-2.4,1.9-4.3,4.3-4.3h30.5c2.4,0,4.3,1.9,4.3,4.3v12.6h2.5c0.2-2,0.5-4,0.7-6.1
				c0.2-3.1,1.7-11.4-4.2-16.7c-8.6-8.5-27.6-8.5-36.2,0c-6,5.3-4.4,13.6-4.2,16.7C27.5,64.2,27.7,66.2,27.9,68.2z"/>
			<path class="st10" d="M30.6,68.9V55.7c0-2.4,1.9-4.3,4.3-4.3h29.4c2.4,0,4.3,1.9,4.3,4.3v13.3"/>
			<path class="st10" d="M62.7,112.1c0.4-2.8,0.8-11.2,1.2-13.9c2.6-1.7,4.5-4.1,4.6-6.1c0.3-2.6,0.6-5.1,0.9-7.7
				c0.4,0.4,0.8,0.6,1.4,0.7c1.2,0.1,2.3-0.8,2.5-2l1.2-11.9c0.1-1.2-0.8-2.3-2-2.5c-0.5,0-0.9,0.1-1.3,0.3c0.3-2.3,0.5-4.5,0.8-6.8
				c0.2-3.1,1.7-11.4-4.2-16.7c-8.6-8.5-27.6-8.5-36.2,0c-6,5.3-4.4,13.6-4.2,16.7c0.3,2.3,0.5,4.5,0.8,6.8
				c-0.4-0.2-0.8-0.3-1.3-0.3c-1.2,0.1-2.1,1.2-2,2.5L26,83c0.1,1.2,1.2,2.1,2.5,2c0.6-0.1,1-0.3,1.4-0.7c0.3,2.6,0.6,5.1,0.9,7.7
				c0.2,2,2,4.5,4.6,6.1c0.4,2.8,0.8,11.2,1.2,13.9l12,10.6L62.7,112.1z"/>
			<polyline class="st10" points="55.2,102.6 44.5,102.6 35,97.9 			"/>
		</g>
	</g>
</g>
<g id="Layer_2" class="st0">
	<g class="st1">
		<polygon class="st2" points="144.2,147.9 144.2,69.5 144.2,30.2 116,2 37.5,2 37.5,31.1 37.5,69.5 37.5,147.9 		"/>
		<g>
			<polygon class="st11" points="116,30.2 144.2,30.2 116,2 			"/>
		</g>
		<rect x="52" y="18.7" class="st6" width="42.9" height="10.1"/>
		<rect x="113.3" y="48.6" class="st12" width="15.8" height="11.2"/>
		<rect x="80.3" y="48.6" class="st12" width="33" height="11.2"/>
		<rect x="52" y="48.6" class="st12" width="29.3" height="11.2"/>
		<rect x="52" y="48.6" class="st6" width="77.1" height="58.9"/>
		<line class="st6" x1="51.6" y1="59.9" x2="129.3" y2="59.9"/>
		<line class="st6" x1="113" y1="48.4" x2="113" y2="108.2"/>
		<line class="st6" x1="81" y1="48.4" x2="81" y2="108.2"/>
		<line class="st6" x1="130.3" y1="121.9" x2="100.9" y2="121.9"/>
		<rect x="13.1" y="2.5" class="st2" width="11.3" height="128.2"/>
		<polygon class="st13" points="24.4,130.7 13.1,130.7 15.9,146.7 21.6,146.7 		"/>
		<line class="st14" x1="13.9" y1="83.4" x2="24.9" y2="83.4"/>
		<line class="st14" x1="13.9" y1="76.3" x2="24.9" y2="76.3"/>
		<polyline class="st14" points="26.3,9.2 5.8,9.2 5.8,56.9 		"/>
	</g>
</g>
</svg>
